<svg width="32" height="32" viewBox="0 0 32 32" fill="#19CE67" xmlns="http://www.w3.org/2000/svg">
<path d="M29.7931 6.47083H2.2069C0.993103 6.47083 0 5.15343 0 3.54328C0 1.93312 0.993103 0.615723 2.2069 0.615723H29.7931C31.0069 0.615723 32 1.93312 32 3.54328C32 5.15343 31.0069 6.47083 29.7931 6.47083Z" fill="currentColor"/>
<path d="M29.7931 31.3844H2.2069C0.993103 31.3844 0 30.067 0 28.4569C0 26.8467 0.993103 25.5293 2.2069 25.5293H29.7931C31.0069 25.5293 32 26.8467 32 28.4569C32 30.067 31.0069 31.3844 29.7931 31.3844Z" fill="currentColor"/>
<path d="M29.7931 18.9274H2.2069C0.993103 18.9274 0 17.61 0 15.9998C0 14.3897 0.993103 13.0723 2.2069 13.0723H29.7931C31.0069 13.0723 32 14.3897 32 15.9998C32 17.61 31.0069 18.9274 29.7931 18.9274Z" fill="currentColor"/>
</svg>
