<svg aria-hidden="true" style="position: absolute; width: 0; height: 0; overflow: hidden;" version="1.1" xmlns="http://www.w3.org/2000/svg" xmlns:xlink="http://www.w3.org/1999/xlink">
<defs>
<symbol id="icon-logo" viewBox="0 0 32 32">
<path fill="#b843ff" style="fill: var(--color1, #b843ff)" d="M30.148 8.527c-1.382-2.616-3.462-4.797-6.008-6.302s-5.461-2.274-8.419-2.222l0.164 9.365c1.226-0.021 2.435 0.297 3.491 0.921s1.918 1.528 2.491 2.613l8.282-4.375z"></path>
<path fill="#000" style="fill: var(--color2, #000)" d="M16 0c-2.79 0-5.532 0.73-7.953 2.116s-4.437 3.383-5.849 5.789-2.169 5.141-2.198 7.931c-0.029 2.79 0.673 5.539 2.035 7.974l8.174-4.572c-0.565-1.010-0.856-2.149-0.844-3.306s0.326-2.29 0.911-3.288c0.585-0.998 1.421-1.825 2.425-2.401s2.141-0.878 3.298-0.878v-9.366z"></path>
<path fill="#19ce67" style="fill: var(--color3, #19ce67)" d="M2.044 23.825c1.31 2.337 3.187 4.308 5.457 5.731s4.861 2.254 7.536 2.415c2.675 0.161 5.347-0.352 7.771-1.492s4.524-2.871 6.106-5.033l-7.556-5.527c-0.656 0.897-1.527 1.615-2.533 2.088s-2.115 0.686-3.224 0.619c-1.11-0.067-2.185-0.411-3.126-1.002s-1.72-1.408-2.264-2.378l-8.166 4.579z"></path>
</symbol>
<symbol id="icon-bl-arrwo-l" viewBox="0 0 32 32">
<path fill="#currentColor" d="M3.5 16l0.852-1h21.797c0.468 0 0.852 0.45 0.852 1s-0.383 1-0.852 1h-21.797l-0.852-1z"></path>
<path fill="#currentColor" d="M1.039 15.75c0-0.050 0.020-0.090 0.040-0.14 0.050-0.12 0.12-0.23 0.21-0.32l5-5c0.2-0.19 0.45-0.29 0.71-0.29s0.51 0.1 0.71 0.29c0.39 0.39 0.39 1.030 0 1.42l-4.3 4.29 1 1 3.3 3.29c0.39 0.39 0.39 1.030 0 1.42s-1.030 0.39-1.42 0l-5-5c-0.090-0.090-0.16-0.2-0.21-0.32-0.020-0.050-0.040-0.090-0.040-0.14-0.050-0.16-0.050-0.34 0-0.5z"></path>
</symbol>
<symbol id="icon-bl-arrow-r" viewBox="0 0 32 32">
<path fill="#currentColor" d="M28.59 16l-0.873 1h-22.344c-0.48 0-0.873-0.45-0.873-1s0.393-1 0.873-1h22.344l0.873 1z"></path>
<path fill="#currentColor" d="M30.961 16.25c0 0.050-0.020 0.090-0.040 0.14-0.050 0.12-0.12 0.23-0.21 0.32l-5 5c-0.2 0.19-0.45 0.29-0.71 0.29s-0.51-0.1-0.71-0.29c-0.39-0.39-0.39-1.030 0-1.42l4.3-4.29-1-1-3.3-3.29c-0.39-0.39-0.39-1.030 0-1.42s1.030-0.39 1.42 0l5 5c0.090 0.090 0.16 0.2 0.21 0.32 0.020 0.050 0.040 0.090 0.040 0.14 0.050 0.16 0.050 0.34 0 0.5z"></path>
</symbol>
<symbol id="icon-quote" viewBox="0 0 32 32">
<path fill="#dee7ee" style="fill: var(--color5, #dee7ee)" d="M13.067 15.545c0.841-0.555 1.849-0.878 2.933-0.878 2.946 0 5.333 2.388 5.333 5.333s-2.388 5.333-5.333 5.333c-2.705 0-4.94-2.014-5.287-4.625-0.486-2.39-0.676-5.263 0.276-7.864 1.021-2.786 3.285-5.073 7.339-6.135 0.712-0.187 1.441 0.24 1.628 0.952s-0.24 1.441-0.952 1.628c-3.279 0.859-4.815 2.572-5.511 4.472-0.207 0.567-0.346 1.165-0.426 1.783z"></path>
</symbol>
<symbol id="gr-arrow" viewBox="0 0 16 14">
<path fill="currentColor" d="M1 6.5H12L8 2.5L8.5 2L13.5 7L8.5 12L8 11.5L12 7.5H1V6.5Z"/>
</symbol>
</defs>
</svg>
