<svg width="29" height="48" viewBox="0 0 29 48" fill="none" xmlns="http://www.w3.org/2000/svg">
<path d="M7.6667 22.8616C9.77037 21.4742 12.2904 20.6666 14.9987 20.6666C22.3625 20.6666 28.332 26.6363 28.332 33.9999C28.332 41.3637 22.3625 47.3333 14.9987 47.3333C8.23537 47.3333 2.64837 42.2976 1.78204 35.7712C0.56637 29.7962 0.0913718 22.6132 2.47304 16.1116C5.02437 9.14591 10.6857 3.42858 20.821 0.775249C22.6021 0.308917 24.4238 1.37492 24.89 3.15558C25.3563 4.93658 24.2905 6.75825 22.5096 7.22458C14.3117 9.37091 10.473 13.6536 8.7327 18.4046C8.21404 19.8212 7.86837 21.3176 7.6667 22.8616Z" fill="#DEE7EE"/>
</svg>
